<svg width="257" height="32" viewBox="0 0 257 32" fill="none" xmlns="http://www.w3.org/2000/svg">
<path d="M78.007 0V2.09917H102.083V0H78.007ZM78.0183 1.05069H102.085H78.0183ZM77.691 32.0001V27.7848L95.3808 6.82961L96.1979 9.1981H78.0178V3.8991H102.081V8.11423L84.4319 29.0695L83.6149 26.701H102.694V32.0001H77.691ZM113.03 15.2197H126.798V20.2779H113.03V15.2197ZM113.52 26.7813H129.086V32.0001H106.943V3.8991H128.554V9.11785H113.52V26.7813ZM134.356 32.0001V3.8991H139.83L156.703 24.1317H154.047V3.8991H160.584V32.0001H155.15L138.237 11.7673H140.892V32.0001H134.356ZM163.607 32.0001L176.354 3.8991H182.89L195.678 32.0001H188.733L178.274 7.19096H180.889L170.389 32.0001H163.607ZM169.981 25.9784L171.737 21.0406H186.445L188.242 25.9784H169.981ZM198.66 32.0001V3.8991H211.039C213.599 3.8991 215.805 4.31387 217.657 5.14331C219.509 5.94577 220.939 7.10997 221.947 8.63591C222.955 10.1613 223.459 11.9811 223.459 14.0954C223.459 16.1829 222.955 17.9895 221.947 19.5149C220.939 21.0136 219.509 22.1644 217.657 22.9673C215.805 23.7698 213.599 24.171 211.039 24.171H202.337L205.279 21.3208V31.9991L198.66 32.0001ZM216.84 32.0001L209.691 21.8034H216.759L223.99 32.0001H216.84ZM205.279 22.0442L202.337 18.9933H210.671C212.714 18.9933 214.239 18.5651 215.247 17.7087C216.255 16.8255 216.759 15.6212 216.759 14.0957C216.759 12.5435 216.255 11.3391 215.247 10.4827C214.239 9.62632 212.714 9.1981 210.671 9.1981H202.337L205.279 6.10699V22.0442ZM224.929 32.0001L237.676 3.8991H244.213L257 32.0001H250.055L239.596 7.19096H242.211L231.711 32.0001H224.929ZM231.303 25.9784L233.059 21.0406H247.767L249.565 25.9784H231.303ZM0 32.0001V3.8991H10.2544C12.6512 3.8991 14.7075 4.27375 16.4234 5.02311C18.1392 5.77247 19.4602 6.85636 20.3862 8.27474C21.3122 9.66641 21.7752 11.3658 21.7752 13.3731C21.7752 15.3267 21.3122 17.0129 20.3862 18.4313C19.4602 19.8497 18.1392 20.9335 16.4234 21.6829C14.7075 22.4322 12.6512 22.807 10.2544 22.807H1.14389L2.08363 21.8435V32.0001H0ZM2.08353 21.964L1.14384 20.9601H10.2543C13.332 20.9601 15.6607 20.3044 17.2404 18.993C18.8473 17.6549 19.6508 15.7816 19.6508 13.3729C19.6508 10.9375 18.8473 9.06401 17.2404 7.75268C15.6607 6.41454 13.332 5.74554 10.2543 5.74554H1.14384L2.08353 4.74153V21.964ZM22.5923 32.0001L35.7474 3.8991H37.8309L50.986 32.0001H48.739L36.3194 5.18373H37.2181L24.8393 32.0001H22.5923ZM27.4131 24.0916L28.1077 22.3654H45.2256L45.9202 24.0916H27.4131ZM50.7272 32.0001L62.3298 16.705V18.3108L51.5034 3.8991H53.9547L63.5146 16.5847H62.6158L72.1757 3.8991H74.5043L63.7597 18.1502V16.7853L75.2806 32.0001H72.8293L62.5341 18.4313H63.3919L53.1784 32.0001H50.7272Z" fill="#341E14"/>
</svg>
